<svg width="74" height="74" viewBox="0 0 74 74" fill="none" xmlns="http://www.w3.org/2000/svg">
<path d="M7.66668 15C5.72176 15 3.85649 15.7727 2.48123 17.1479C1.10596 18.5232 0.333344 20.3885 0.333344 22.3334V66.3334C0.333344 70.3667 3.63334 73.6667 7.66668 73.6667H51.6667C53.6116 73.6667 55.4769 72.8941 56.8521 71.5188C58.2274 70.1436 59 68.2783 59 66.3334H7.66668V15ZM66.3333 0.333374H22.3333C20.3884 0.333374 18.5232 1.10599 17.1479 2.48126C15.7726 3.85652 15 5.72179 15 7.66671V51.6667C15 53.6116 15.7726 55.4769 17.1479 56.8522C18.5232 58.2274 20.3884 59 22.3333 59H66.3333C68.2783 59 70.1435 58.2274 71.5188 56.8522C72.8941 55.4769 73.6667 53.6116 73.6667 51.6667V7.66671C73.6667 5.72179 72.8941 3.85652 71.5188 2.48126C70.1435 1.10599 68.2783 0.333374 66.3333 0.333374ZM48 51.6667H22.3333V26H48V51.6667ZM66.3333 51.6667H55.3333V26H66.3333V51.6667ZM66.3333 18.6667H22.3333V7.66671H66.3333V18.6667Z" fill="#F3CD03"/>
</svg>
